<svg width="500" height="250" viewBox="0 0 500 250" fill="none" xmlns="http://www.w3.org/2000/svg">
<circle cx="82.5742" cy="167.426" r="6" fill="#002FA7"/>
<circle cx="167.426" cy="167.426" r="6" fill="#002FA7"/>
<circle cx="82.5742" cy="82.5736" r="6" fill="#002FA7"/>
<circle cx="147.961" cy="69.5673" r="6" fill="#002FA7"/>
<circle cx="125" cy="65" r="6" fill="#002FA7"/>
<circle cx="147.961" cy="180.433" r="6" fill="#002FA7"/>
<circle cx="69.5674" cy="102.039" r="6" fill="#002FA7"/>
<circle cx="102.039" cy="180.433" r="6" fill="#002FA7"/>
<circle cx="167.426" cy="82.5736" r="6" fill="#002FA7"/>
<circle cx="125" cy="185" r="6" fill="#002FA7"/>
<circle cx="102.039" cy="69.5673" r="6" fill="#002FA7"/>
<circle cx="69.5674" cy="147.961" r="6" fill="#002FA7"/>
<circle cx="65" cy="125" r="6" fill="#002FA7"/>
<circle cx="125" cy="89" r="4.5" fill="#F7E14D"/>
<circle cx="139.25" cy="92" r="4.5" fill="#F7E14D"/>
<circle cx="151.25" cy="100.25" r="4.5" fill="#F7E14D"/>
<circle cx="151.25" cy="152.75" r="4.5" fill="#F7E14D"/>
<circle cx="139.25" cy="161" r="4.5" fill="#F7E14D"/>
<circle cx="125" cy="164" r="4.5" fill="#F7E14D"/>
<circle cx="110.75" cy="161" r="4.5" fill="#F7E14D"/>
<circle cx="98.75" cy="152.75" r="4.5" fill="#F7E14D"/>
<circle cx="90.5" cy="140.75" r="4.5" fill="#F7E14D"/>
<circle cx="87.5" cy="126.5" r="4.5" fill="#F7E14D"/>
<circle cx="90.5" cy="112.25" r="4.5" fill="#F7E14D"/>
<circle cx="98.75" cy="100.25" r="4.5" fill="#F7E14D"/>
<circle cx="110.75" cy="92" r="4.5" fill="#F7E14D"/>
<path d="M178.628 137V111.8H182.66V137H178.628ZM180.752 127.172V123.392H188.492C189.836 123.392 190.868 123.044 191.588 122.348C192.332 121.652 192.704 120.704 192.704 119.504H196.916C196.916 121.832 196.184 123.692 194.72 125.084C193.28 126.476 191.312 127.172 188.816 127.172H180.752ZM192.704 119.504C192.704 118.28 192.332 117.32 191.588 116.624C190.868 115.928 189.836 115.58 188.492 115.58H180.752V111.8H188.816C191.312 111.8 193.28 112.496 194.72 113.888C196.184 115.28 196.916 117.152 196.916 119.504H192.704ZM192.524 137L186.764 126.056L190.724 124.904L196.988 136.712V137H192.524ZM205.364 137.54C204.116 137.54 203 137.3 202.016 136.82C201.056 136.34 200.3 135.668 199.748 134.804C199.196 133.94 198.92 132.956 198.92 131.852C198.92 130.148 199.508 128.792 200.684 127.784C201.86 126.752 203.552 126.152 205.76 125.984L212.816 125.408V128.828L206.372 129.368C205.22 129.464 204.392 129.704 203.888 130.088C203.384 130.472 203.132 130.988 203.132 131.636C203.132 132.284 203.42 132.812 203.996 133.22C204.572 133.628 205.304 133.832 206.192 133.832C207.128 133.832 207.968 133.604 208.712 133.148C209.48 132.668 210.092 132.056 210.548 131.312C211.004 130.568 211.232 129.764 211.232 128.9V125.912C211.232 124.76 210.848 123.812 210.08 123.068C209.312 122.3 208.304 121.916 207.056 121.916C206 121.916 205.124 122.18 204.428 122.708C203.756 123.212 203.324 123.848 203.132 124.616H202.736L199.208 123.752C199.64 122.12 200.54 120.8 201.908 119.792C203.3 118.784 205.028 118.28 207.092 118.28C209.66 118.28 211.664 119.024 213.104 120.512C214.544 121.976 215.264 124.052 215.264 126.74V137H211.592V131.708L213.068 131.924C212.78 132.956 212.264 133.904 211.52 134.768C210.776 135.608 209.876 136.28 208.82 136.784C207.788 137.288 206.636 137.54 205.364 137.54ZM219.647 137V118.82H223.535V123.248L222.851 122.564C223.259 121.652 223.787 120.884 224.435 120.26C225.083 119.636 225.839 119.156 226.703 118.82C227.567 118.46 228.539 118.28 229.619 118.28C231.131 118.28 232.475 118.7 233.651 119.54C234.827 120.38 235.619 121.616 236.027 123.248L234.695 123.176C235.103 122.144 235.679 121.268 236.423 120.548C237.167 119.828 238.031 119.276 239.015 118.892C240.023 118.484 241.079 118.28 242.183 118.28C243.407 118.28 244.523 118.568 245.531 119.144C246.563 119.696 247.379 120.524 247.979 121.628C248.603 122.708 248.915 124.064 248.915 125.696V137H244.775V126.704C244.775 125.624 244.619 124.748 244.307 124.076C243.995 123.38 243.563 122.876 243.011 122.564C242.459 122.228 241.823 122.06 241.103 122.06C240.431 122.06 239.723 122.24 238.979 122.6C238.259 122.96 237.635 123.56 237.107 124.4C236.603 125.216 236.351 126.356 236.351 127.82V137H232.211V126.704C232.211 125.624 232.055 124.748 231.743 124.076C231.431 123.38 230.999 122.876 230.447 122.564C229.895 122.228 229.259 122.06 228.539 122.06C227.867 122.06 227.159 122.24 226.415 122.6C225.695 122.96 225.071 123.56 224.543 124.4C224.039 125.24 223.787 126.38 223.787 127.82V137H219.647ZM263.263 137.54C261.919 137.54 260.719 137.264 259.663 136.712C258.607 136.16 257.719 135.44 256.999 134.552C256.303 133.664 255.811 132.716 255.523 131.708V124.076C255.811 123.044 256.303 122.096 256.999 121.232C257.719 120.344 258.607 119.636 259.663 119.108C260.719 118.556 261.919 118.28 263.263 118.28C264.919 118.28 266.395 118.7 267.691 119.54C269.011 120.356 270.055 121.484 270.823 122.924C271.615 124.364 272.011 126.02 272.011 127.892C272.011 129.764 271.615 131.432 270.823 132.896C270.055 134.336 269.011 135.476 267.691 136.316C266.395 137.132 264.919 137.54 263.263 137.54ZM253.291 144.2V118.82H257.179V124.436L256.315 127.892L257.431 131.384V144.2H253.291ZM262.651 133.76C263.683 133.76 264.583 133.52 265.351 133.04C266.143 132.536 266.755 131.84 267.187 130.952C267.643 130.064 267.871 129.044 267.871 127.892C267.871 126.74 267.643 125.732 267.187 124.868C266.755 123.98 266.143 123.284 265.351 122.78C264.583 122.276 263.683 122.024 262.651 122.024C261.619 122.024 260.695 122.276 259.879 122.78C259.087 123.284 258.463 123.98 258.007 124.868C257.575 125.732 257.359 126.74 257.359 127.892C257.359 129.044 257.575 130.064 258.007 130.952C258.463 131.84 259.087 132.536 259.879 133.04C260.695 133.52 261.619 133.76 262.651 133.76ZM284.589 137V111.8H288.729V137H284.589ZM286.713 126.38V122.42H299.601V126.38H286.713ZM286.713 115.76V111.8H300.681V115.76H286.713ZM311.882 137.54C310.058 137.54 308.45 137.132 307.058 136.316C305.666 135.5 304.574 134.372 303.782 132.932C302.99 131.468 302.594 129.788 302.594 127.892C302.594 126.02 302.99 124.364 303.782 122.924C304.574 121.46 305.666 120.32 307.058 119.504C308.45 118.688 310.058 118.28 311.882 118.28C313.73 118.28 315.35 118.688 316.742 119.504C318.134 120.32 319.226 121.46 320.018 122.924C320.81 124.364 321.206 126.02 321.206 127.892C321.206 129.788 320.81 131.468 320.018 132.932C319.226 134.372 318.134 135.5 316.742 136.316C315.35 137.132 313.73 137.54 311.882 137.54ZM311.882 133.796C312.938 133.796 313.85 133.556 314.618 133.076C315.386 132.596 315.986 131.912 316.418 131.024C316.85 130.136 317.066 129.104 317.066 127.928C317.066 126.704 316.85 125.66 316.418 124.796C315.986 123.908 315.386 123.224 314.618 122.744C313.85 122.264 312.938 122.024 311.882 122.024C310.85 122.024 309.95 122.264 309.182 122.744C308.414 123.224 307.814 123.908 307.382 124.796C306.95 125.66 306.734 126.692 306.734 127.892C306.734 129.092 306.95 130.136 307.382 131.024C307.814 131.912 308.414 132.596 309.182 133.076C309.95 133.556 310.85 133.796 311.882 133.796ZM324.799 137V118.82H328.687V123.464L327.643 123.392C328.147 121.976 328.987 120.86 330.163 120.044C331.339 119.228 332.683 118.82 334.195 118.82H335.959V122.528H333.583C332.647 122.528 331.831 122.744 331.135 123.176C330.439 123.584 329.899 124.172 329.515 124.94C329.131 125.708 328.939 126.62 328.939 127.676V137H324.799ZM346.161 137.54C344.313 137.54 342.681 137.132 341.265 136.316C339.873 135.5 338.781 134.372 337.989 132.932C337.197 131.492 336.801 129.812 336.801 127.892C336.801 125.996 337.185 124.328 337.953 122.888C338.745 121.424 339.825 120.296 341.193 119.504C342.585 118.688 344.181 118.28 345.981 118.28C347.781 118.28 349.341 118.7 350.661 119.54C352.005 120.356 353.049 121.508 353.793 122.996C354.561 124.484 354.945 126.224 354.945 128.216V128.9L354.405 129.44H338.745V125.984H353.073L350.877 126.812C350.853 125.804 350.613 124.94 350.157 124.22C349.725 123.476 349.149 122.912 348.429 122.528C347.733 122.12 346.941 121.916 346.053 121.916C345.093 121.916 344.217 122.144 343.425 122.6C342.633 123.032 342.021 123.644 341.589 124.436C341.157 125.204 340.941 126.104 340.941 127.136V128.576C340.941 129.56 341.169 130.46 341.625 131.276C342.105 132.068 342.741 132.704 343.533 133.184C344.325 133.664 345.201 133.904 346.161 133.904C347.073 133.904 347.901 133.664 348.645 133.184C349.413 132.68 350.013 132.008 350.445 131.168H350.877L354.225 132.608C353.505 134.168 352.437 135.38 351.021 136.244C349.629 137.108 348.009 137.54 346.161 137.54ZM369.17 137L356.534 119.108V118.82H361.178L373.814 136.712V137H369.17ZM356.318 137V136.712L363.806 126.092L366.254 129.332L360.854 137H356.318ZM366.398 129.476L363.95 126.236L369.062 118.82H373.598V119.108L366.398 129.476Z" fill="#002FA7"/>
</svg>
